<?xml version="1.0" encoding="UTF-8"?>
<svg version="1.1" xmlns="http://www.w3.org/2000/svg" width="512" height="512">
<path d="M0 0 C0.71177399 0.00087616 1.42354797 0.00175232 2.15689087 0.00265503 C42.2175087 0.1636977 78.92669425 12.06642438 108.25 40 C118.66015432 50.7075873 126.19344137 62.79362611 132.25 76.375 C132.79398437 77.57640625 133.33796875 78.7778125 133.8984375 80.015625 C140.03841326 94.41495902 143.61339578 109.82725996 145.25 125.375 C145.36085938 126.35597656 145.47171875 127.33695312 145.5859375 128.34765625 C151.76242998 193.03389511 128.46036697 258.49782894 87.79345703 308.52050781 C80.78312736 316.94354865 73.06976586 324.70789768 65.25 332.375 C66.136875 332.045 67.02375 331.715 67.9375 331.375 C74.32610756 329.6126255 81.61759801 328.8870281 87.84375 331.4375 C99.5776394 338.83145771 108.55560363 352.83863398 111.83984375 366.21484375 C113.00261772 372.33878665 112.45475115 375.34309602 109.125 380.5625 C108.54492188 381.38105469 107.96484375 382.19960938 107.3671875 383.04296875 C105.96784234 385.26226886 105.96784234 385.26226886 106.89135742 387.22631836 C108.5883608 389.91011472 110.58492417 391.88012652 112.87109375 394.0859375 C113.80171631 394.99432373 114.73233887 395.90270996 115.69116211 396.83862305 C116.18115692 397.31407562 116.67115173 397.7895282 117.17599487 398.27938843 C149.14617324 429.3846182 149.14617324 429.3846182 149.625 444.0625 C149.53532468 448.77045406 149.36681423 452.05647799 146.234375 455.6640625 C114.20614639 483.27895253 57.95418585 488.41824471 17.41015625 488.578125 C16.21765259 488.58513931 15.02514893 488.59215363 13.79650879 488.59938049 C9.96846707 488.61679511 6.14057988 488.62323275 2.3125 488.625 C0.35423782 488.62601212 0.35423782 488.62601212 -1.64358521 488.62704468 C-20.20012849 488.61177392 -38.40004011 488.37387127 -56.75 485.375 C-57.87132324 485.19807617 -58.99264648 485.02115234 -60.14794922 484.83886719 C-117.43043268 475.59640991 -117.43043268 475.59640991 -138.75 459.375 C-140.03390625 458.43914062 -140.03390625 458.43914062 -141.34375 457.484375 C-144.66659026 454.57149555 -146.41686832 452.03824438 -147.2890625 447.68359375 C-147.69928381 433.97847257 -138.83070142 424.70454127 -130.20922852 415.0234375 C-129.18904663 413.87097504 -128.17995963 412.70863849 -127.17944336 411.5390625 C-122.47390315 406.05756882 -117.44595592 400.9546808 -112.3125 395.875 C-111.48556641 395.05257813 -110.65863281 394.23015625 -109.80664062 393.3828125 C-107.79005041 391.37787887 -105.77114764 389.37533747 -103.75 387.375 C-104.91530424 384.29901673 -106.10603101 381.80953898 -107.875 379 C-110.85301744 373.81356513 -110.10302495 369.22733408 -108.625 363.625 C-104.39518946 350.64046531 -96.35382341 338.75677499 -84.75 331.375 C-81.9737508 329.9868754 -79.66041906 330.20532462 -76.5625 330.1875 C-75.45519531 330.17332031 -74.34789062 330.15914063 -73.20703125 330.14453125 C-69.40037993 330.398308 -66.36928316 331.21149474 -62.75 332.375 C-63.24701416 331.90416992 -63.74402832 331.43333984 -64.25610352 330.94824219 C-81.72183983 314.27594646 -95.81084914 296.3419189 -107.75 275.375 C-108.26804199 274.47297852 -108.78608398 273.57095703 -109.31982422 272.64160156 C-139.58713846 219.58171497 -153.60519652 156.81113507 -137.3581543 96.7265625 C-127.653704 63.33790573 -107.44820416 35.12436243 -76.765625 18.1171875 C-53.15253584 5.57665554 -26.63571892 -0.08100959 0 0 Z " fill="#5981D1" transform="translate(254.75,11.625)"/>
<path d="M0 0 C26.82343061 10.40749108 51.37658404 36.96048365 63.53125 62.57421875 C66.9296875 70.47226344 66.9296875 70.47226344 66.9296875 74.19921875 C67.5896875 74.19921875 68.2496875 74.19921875 68.9296875 74.19921875 C69.0946875 73.02359375 69.2596875 71.84796875 69.4296875 70.63671875 C75.38081985 44.31122357 102.53127348 19.58721306 124.109375 5.52734375 C132.82279329 0.08521866 141.60492876 -2.50410439 151.9296875 -0.80078125 C163.75538705 4.10867583 170.47542152 16.2784024 175.9296875 27.19921875 C178.16997912 32.70286851 179.88522957 38.25362366 178.9296875 44.19921875 C177.42569763 46.86331099 175.81578011 49.37106585 174.046875 51.8671875 C172.64752984 54.08648761 172.64752984 54.08648761 173.57104492 56.05053711 C175.2680483 58.73433347 177.26461167 60.70434527 179.55078125 62.91015625 C180.48140381 63.81854248 181.41202637 64.72692871 182.37084961 65.6628418 C182.86084442 66.13829437 183.35083923 66.61374695 183.85568237 67.10360718 C215.82586074 98.20883695 215.82586074 98.20883695 216.3046875 112.88671875 C216.21501218 117.59467281 216.04650173 120.88069674 212.9140625 124.48828125 C180.88583389 152.10317128 124.63387335 157.24246346 84.08984375 157.40234375 C82.89734009 157.40935806 81.70483643 157.41637238 80.47619629 157.42359924 C76.64815457 157.44101386 72.82026738 157.4474515 68.9921875 157.44921875 C67.03392532 157.45023087 67.03392532 157.45023087 65.03610229 157.45126343 C46.47955901 157.43599267 28.27964739 157.19809002 9.9296875 154.19921875 C8.80836426 154.02229492 7.68704102 153.84537109 6.53173828 153.66308594 C-50.75074518 144.42062866 -50.75074518 144.42062866 -72.0703125 128.19921875 C-72.92625 127.5753125 -73.7821875 126.95140625 -74.6640625 126.30859375 C-77.98690276 123.3957143 -79.73718082 120.86246313 -80.609375 116.5078125 C-81.01959631 102.80269132 -72.15101392 93.52876002 -63.52954102 83.84765625 C-62.50935913 82.69519379 -61.50027213 81.53285724 -60.49975586 80.36328125 C-55.79421565 74.88178757 -50.76626842 69.77889955 -45.6328125 64.69921875 C-44.80587891 63.87679687 -43.97894531 63.054375 -43.12695312 62.20703125 C-41.11036291 60.20209762 -39.09146014 58.19955622 -37.0703125 56.19921875 C-38.23561674 53.12323548 -39.42634351 50.63375773 -41.1953125 47.82421875 C-44.17332994 42.63778388 -43.42333745 38.05155283 -41.9453125 32.44921875 C-37.71550196 19.46468406 -29.67413591 7.58099374 -18.0703125 0.19921875 C-12.85202859 -2.40992321 -5.46474654 -1.42528377 0 0 Z " fill="#4B3956" transform="translate(188.0703125,342.80078125)"/>
<path d="M0 0 C26.82343061 10.40749108 51.37658404 36.96048365 63.53125 62.57421875 C66.9296875 70.47226344 66.9296875 70.47226344 66.9296875 74.19921875 C67.5896875 74.19921875 68.2496875 74.19921875 68.9296875 74.19921875 C69.0946875 73.02359375 69.2596875 71.84796875 69.4296875 70.63671875 C75.38081985 44.31122357 102.53127348 19.58721306 124.109375 5.52734375 C132.82279329 0.08521866 141.60492876 -2.50410439 151.9296875 -0.80078125 C163.75538705 4.10867583 170.47542152 16.2784024 175.9296875 27.19921875 C178.48976361 33.48847239 180.55420031 39.93843516 178.0390625 46.53515625 C173.97467546 54.49254052 167.3913415 58.76671317 159.9296875 63.19921875 C159.35573242 63.54726563 158.78177734 63.8953125 158.19042969 64.25390625 C138.80123353 75.85036759 115.58978445 82.77787291 92.9296875 82.19921875 C93.20941406 82.98039062 93.48914063 83.7615625 93.77734375 84.56640625 C108.65963923 127.53843627 108.65963923 127.53843627 107.9296875 143.19921875 C107.5996875 143.85921875 107.2696875 144.51921875 106.9296875 145.19921875 C104.9496875 145.19921875 102.9696875 145.19921875 100.9296875 145.19921875 C98.96724448 138.12189763 97.07848388 131.06070902 95.57299805 123.87158203 C93.87456915 115.77698091 91.76210329 107.86666871 89.3671875 99.94921875 C89.07416748 98.97275391 88.78114746 97.99628906 88.47924805 96.99023438 C86.9828085 92.14020081 85.38452743 87.6462844 82.9296875 83.19921875 C67.91450752 82.12683852 67.91450752 82.12683852 52.9296875 83.19921875 C44.17766805 101.22757218 40.31656117 121.73925913 36.39111328 141.25756836 C35.9296875 143.19921875 35.9296875 143.19921875 34.9296875 145.19921875 C32.9496875 145.19921875 30.9696875 145.19921875 28.9296875 145.19921875 C25.07895806 137.49775988 30.57141782 124.59653768 32.6171875 116.63671875 C32.88305664 115.5849646 32.88305664 115.5849646 33.15429688 114.51196289 C35.92224652 103.56881899 39.04208408 92.80177354 42.9296875 82.19921875 C41.6715625 82.23273438 40.4134375 82.26625 39.1171875 82.30078125 C14.30397583 82.27170327 -11.06244795 72.53197472 -31.0703125 58.19921875 C-31.70324219 57.81507813 -32.33617187 57.4309375 -32.98828125 57.03515625 C-38.10302474 53.82889913 -40.88073421 49.81427064 -43.0703125 44.19921875 C-44.67019225 33.20004545 -38.25158781 22.19843985 -32.18359375 13.4921875 C-23.480801 2.08793846 -14.70185307 -3.83445277 0 0 Z " fill="#5B4666" transform="translate(188.0703125,342.80078125)"/>
<path d="M0 0 C5.34265943 4.28832056 8.70170655 9.44757642 11.74609375 15.52734375 C12.16117187 16.32527344 12.57625 17.12320313 13.00390625 17.9453125 C17.3017284 27.63795336 17.808452 41.12513846 14.18359375 51.15234375 C4.44805351 70.75958564 -16.7335389 81.60133714 -36.64453125 88.3359375 C-47.30526527 91.0383963 -62.42433 91.70283406 -72.40625 86.73828125 C-76.26178821 84.21139574 -78.72198383 81.32522738 -81.25390625 77.52734375 C-83.02858045 56.34649197 -75.5025519 36.38006946 -61.99072266 19.99560547 C-46.59565968 2.09398763 -23.59806402 -15.41849243 0 0 Z " fill="#FDFEFE" transform="translate(360.25390625,160.47265625)"/>
<path d="M0 0 C2.50865412 2.20730253 4.86280641 4.4947017 7.19140625 6.890625 C7.949375 7.63957031 8.70734375 8.38851562 9.48828125 9.16015625 C23.44844262 23.67391022 33.16708247 43.45464776 33.50390625 63.640625 C33.52179199 64.37450439 33.53967773 65.10838379 33.55810547 65.86450195 C33.55083408 70.40756032 33.08455153 73.34541416 30.19140625 76.890625 C27.88671875 78.65625 27.88671875 78.65625 25.31640625 80.140625 C24.47335938 80.64078125 23.6303125 81.1409375 22.76171875 81.65625 C13.1172864 86.28792268 -2.52208607 85.28185247 -12.55859375 82.390625 C-14.66434593 81.61568629 -16.74696969 80.77630465 -18.80859375 79.890625 C-19.47874512 79.60622559 -20.14889648 79.32182617 -20.83935547 79.02880859 C-29.77011932 75.18935881 -38.21163534 71.03618516 -45.80859375 64.890625 C-46.67097656 64.20226562 -47.53335938 63.51390625 -48.421875 62.8046875 C-56.05246006 56.36108234 -62.93708907 48.1418376 -64.02832031 37.81030273 C-64.53242382 27.94109982 -64.45800766 18.82847348 -59.80859375 9.890625 C-59.37289062 9.02050781 -58.9371875 8.15039062 -58.48828125 7.25390625 C-53.7691487 -1.37204914 -47.12079574 -7.87509106 -37.55859375 -10.796875 C-23.56179984 -12.38741976 -11.23501303 -8.43797918 0 0 Z " fill="#FDFEFE" transform="translate(199.80859375,166.109375)"/>
<path d="M0 0 C2.55244 0.99798104 5.06424955 2.02981258 7.55078125 3.18359375 C25.43179214 11.3021291 49.78143524 13.69707256 68.54101562 6.87695312 C69.24935547 6.60818359 69.95769531 6.33941406 70.6875 6.0625 C72.12877105 5.53218451 73.57017491 5.00222978 75.01171875 4.47265625 C75.68638184 4.2214502 76.36104492 3.97024414 77.05615234 3.71142578 C79.68512122 2.74925355 82.33853683 1.86759508 85 1 C82.43547077 3.57854305 79.85959153 6.13504634 77.23828125 8.65625 C62.4631505 22.93670013 50.55805908 39.32582275 44 59 C43.34 59 42.68 59 42 59 C41.72027344 58.20078125 41.44054687 57.4015625 41.15234375 56.578125 C33.33233444 35.15481975 18.88789663 17.02595532 1.546875 2.390625 C1.03640625 1.93171875 0.5259375 1.4728125 0 1 C0 0.67 0 0.34 0 0 Z " fill="#4665B6" transform="translate(213,358)"/>
<path d="M0 0 C2.475 0.495 2.475 0.495 5 1 C6.98663811 6.31209756 4.56061386 10.34499735 2.5 15.25 C-4.96171601 33.93304581 -9.57910578 53.37088168 -13.53857422 73.05834961 C-14 75 -14 75 -15 77 C-16.98 77 -18.96 77 -21 77 C-24.74404379 69.51191242 -19.43841991 56.54341893 -17.5 48.9375 C-17.32625854 48.24722717 -17.15251709 47.55695435 -16.97351074 46.84576416 C-14.45338525 36.88413605 -11.59092495 27.09628016 -8.25 17.375 C-7.88583984 16.31015381 -7.52167969 15.24530762 -7.14648438 14.14819336 C-5.28310317 8.916163 -3.36042642 4.43515739 0 0 Z " fill="#F2D9B0" transform="translate(238,411)"/>
<path d="M0 0 C4.16737951 1.64756864 4.95385855 5.09958917 6.6875 9.0625 C7.88418625 11.9910807 8.96204502 14.94924355 10 17.9375 C10.29487305 18.78393066 10.58974609 19.63036133 10.89355469 20.50244141 C24.38028561 60.19909967 24.38028561 60.19909967 23.6875 75.0625 C23.3575 75.7225 23.0275 76.3825 22.6875 77.0625 C20.7075 77.0625 18.7275 77.0625 16.6875 77.0625 C14.72527525 69.98596606 12.8359864 62.92559775 11.33154297 55.73706055 C7.96987192 39.72507978 3.35832825 23.96633645 -3.34375 9.0234375 C-4.39250028 5.81798301 -4.36456287 4.23012408 -3.3125 1.0625 C-2.3125 0.0625 -2.3125 0.0625 0 0 Z " fill="#F2D9B0" transform="translate(272.3125,410.9375)"/>
<path d="M0 0 C0.79289932 -0.0033284 1.58579865 -0.0066568 2.40272522 -0.01008606 C4.08317483 -0.01515851 5.76363454 -0.01749429 7.4440918 -0.01733398 C10.02083884 -0.01951911 12.59715701 -0.03766734 15.17382812 -0.05664062 C16.80338395 -0.0595747 18.43294181 -0.0615594 20.0625 -0.0625 C20.83649643 -0.06968552 21.61049286 -0.07687103 22.40794373 -0.08427429 C27.86883372 -0.06085378 27.86883372 -0.06085378 30.09765625 2.16796875 C29.54210069 6.72352431 29.54210069 6.72352431 28.09765625 8.16796875 C25.45479351 8.28133501 22.83904169 8.33214636 20.1953125 8.3359375 C19.40241318 8.3392659 18.60951385 8.3425943 17.79258728 8.34602356 C16.11213767 8.35109601 14.43167796 8.35343179 12.7512207 8.35327148 C10.17447366 8.35545661 7.59815549 8.37360484 5.02148438 8.39257812 C3.39192855 8.3955122 1.76237069 8.3974969 0.1328125 8.3984375 C-1.02818214 8.40921577 -1.02818214 8.40921577 -2.21263123 8.42021179 C-7.67352122 8.39679128 -7.67352122 8.39679128 -9.90234375 6.16796875 C-9.04328183 -0.87633896 -6.34569987 0.00909981 0 0 Z " fill="#4666B7" transform="translate(245.90234375,297.83203125)"/>
<path d="M0 0 C1.62109375 0.96875 1.62109375 0.96875 3.74609375 3.28125 C4.24609375 5.90625 4.24609375 5.90625 3.74609375 8.28125 C3.08609375 8.94125 2.42609375 9.60125 1.74609375 10.28125 C-0.51665413 9.92769564 -2.20479477 9.30580574 -4.25390625 8.28125 C-5.89646416 8.16010079 -7.54443103 8.10584233 -9.19140625 8.09375 C-10.50431641 8.07248047 -10.50431641 8.07248047 -11.84375 8.05078125 C-14.5163496 8.11461651 -14.5163496 8.11461651 -17.25390625 10.28125 C-19.94140625 9.90625 -19.94140625 9.90625 -22.25390625 9.28125 C-22.62018532 3.78706395 -22.62018532 3.78706395 -20.94140625 1.46875 C-15.57661966 -2.30647019 -6.03895803 -1.92576825 0 0 Z " fill="#4667B8" transform="translate(265.25390625,264.71875)"/>
</svg>
